<?xml version="1.0" encoding="utf-8"?>
<!-- Generator: Adobe Illustrator 19.0.0, SVG Export Plug-In . SVG Version: 6.00 Build 0)  -->
<svg version="1.1" id="Layer_1" xmlns="http://www.w3.org/2000/svg" xmlns:xlink="http://www.w3.org/1999/xlink" x="0px" y="0px"
	 viewBox="56.6 56.2 87 86.6" style="enable-background:new 56.6 56.2 87 86.6;" xml:space="preserve">
<style type="text/css">
	.st0{fill:#010101;}
</style>
<path id="path1937" class="st0" d="M100.1,56.2c-5.5,0-10.2,1.9-13.9,5.6c-3.8,3.7-5.7,8.1-5.7,13.2c0,4.2,1.6,8.5,4.8,13.1
	c-2.8-2.3-5.6-3.7-10.9-3.7c-10.4,0-17.8,8.5-17.8,19.2c0,11.3,8.2,19.9,19.3,19.9c11,0,19.3-7.5,23.3-16.7
	c-0.2,7.5-1.3,13.4-3.4,17.7c-2.1,4.3-5.3,7.9-9.6,10.8c-2.9,1.9-8.1,3.6-15.7,5.1l-0.6,2.4h30.2h30.2l-0.6-2.4
	c-7.5-1.5-12.8-3.1-15.7-5.1c-4.3-2.9-7.5-6.4-9.6-10.8c-2.1-4.3-3.2-10.2-3.4-17.7c4.1,9.1,12.3,16.7,23.3,16.7s19.3-8.6,19.3-19.9
	c0-10.7-7.5-19.2-17.8-19.2c-5.3,0-8.1,1.4-10.9,3.7c3.2-4.6,4.8-9,4.8-13.1c0-5.1-1.9-9.5-5.7-13.2C110.3,58,105.7,56.2,100.1,56.2
	z"/>
</svg>
