<?xml version="1.0" encoding="utf-8"?>
<!-- Generator: Adobe Illustrator 19.0.0, SVG Export Plug-In . SVG Version: 6.00 Build 0)  -->
<svg version="1.1" id="Layer_1" xmlns="http://www.w3.org/2000/svg" xmlns:xlink="http://www.w3.org/1999/xlink" x="0px" y="0px"
	 viewBox="61.9 55.3 76.7 88.2" style="enable-background:new 61.9 55.3 76.7 88.2;" xml:space="preserve">
<style type="text/css">
	.st0{fill:#D31F26;}
</style>
<path id="path1935" class="st0" d="M100.3,143.5c-1.5-5.5-3.5-10.7-6.2-15.6s-7.9-12.4-15.6-22.6C72.8,97.8,69.3,93,68,91
	c-2.2-3.3-3.7-6.3-4.7-9c-1-2.7-1.4-5.5-1.4-8.3c0-5.2,1.7-9.6,5.2-13.1s7.8-5.3,12.9-5.3c5.2,0,9.6,1.8,13.4,5.5
	c2.9,2.7,5.2,6.8,7,12.2c1.5-5.3,3.7-9.3,6.5-12.1c3.9-3.7,8.4-5.6,13.5-5.6s9.4,1.7,12.9,5.2c3.5,3.5,5.3,7.7,5.3,12.5
	c0,4.2-1,8.6-3.1,13.2s-6,10.6-12,18c-7.7,9.7-13.3,17.7-16.8,23.9C103.9,132.9,101.8,138.1,100.3,143.5L100.3,143.5z"/>
</svg>
