<?xml version="1.0" encoding="utf-8"?>
<!-- Generator: Adobe Illustrator 19.0.0, SVG Export Plug-In . SVG Version: 6.00 Build 0)  -->
<svg version="1.1" id="Layer_1" xmlns="http://www.w3.org/2000/svg" xmlns:xlink="http://www.w3.org/1999/xlink" x="0px" y="0px"
	 viewBox="66.4 54.5 68.3 89.9" style="enable-background:new 66.4 54.5 68.3 89.9;" xml:space="preserve">
<style type="text/css">
	.st0{fill:#010101;}
</style>
<path id="path1939" class="st0" d="M100.4,54.5c-1.2,5.1-3.1,9.6-5.6,13.6s-7,8.9-13.5,14.8S70.7,93.3,69,96.4
	c-1.7,3.1-2.6,6.3-2.6,9.6c0,4.5,1.5,8.3,4.5,11.3s6.7,4.5,11,4.5c7.7,0,13.7-5.6,17.6-11.8c-0.3,6.7-1.4,12.1-3.3,16.1
	c-2.1,4.3-5.3,7.9-9.6,10.8c-2.9,1.9-8.1,3.6-15.7,5.1l-0.6,2.4h30.2h30.2l-0.6-2.4c-7.5-1.5-12.8-3.1-15.7-5.1
	c-4.3-2.9-7.5-6.4-9.6-10.8c-1.9-4-3-9.4-3.3-16.1c3.9,6.1,9.9,11.8,17.7,11.8c4.3,0,8-1.5,11-4.5s4.5-6.7,4.5-11.3
	c0-3.2-0.9-6.4-2.6-9.6c-1.7-3.1-5.9-7.6-12.3-13.5c-6.5-5.9-11-10.8-13.5-14.8C103.5,64.1,101.6,59.5,100.4,54.5z"/>
</svg>
